<svg xmlns="http://www.w3.org/2000/svg" width="406.44" height="220" viewBox="0 0 406.44 220">
  <path d="M 14 14
      H 24
      l 6 4 l 3 0 l 6 -4
      H 392.44
      a 8 8 0 0 1 8 8
      V 198
      a 8 8 0 0 1 -8 8
      H 39
      l -6 4 l -3 0 l -6 -4
      H 14
      a 8 8 0 0 1 -8 -8
      V 22
      a 8 8 0 0 1 8 -8 Z" fill="#72574A" stroke="#4A382F" stroke-width="1.5"/>
  <text x="20" y="35" font-size="14" font-family='Segoe UI, Verdana, Helvetica, sans-serif' fill="#ffffff">Auto-capture all tree structures at x</text><path d="M 342.44 16
      h 44
      a 6 6 0 0 1 6 6
      V 38
      a 6 6 0 0 1 -6 6
      H 342.44
      a 6 6 0 0 1 -6 -6
      c 0,-4 -6,-2 -6,-8 c 0,-5 6,-3 6,-8
      a 6 6 0 0 1 6 -6 Z" fill="#4A5172" stroke="#2B3252" stroke-width="1.5"/><text x="361.44" y="35" font-size="13" font-family='Segoe UI, Verdana, Helvetica, sans-serif' fill="#ffffff" text-anchor="middle">0</text><text x="20" y="67" font-size="14" font-family='Segoe UI, Verdana, Helvetica, sans-serif' fill="#ffffff">y</text><path d="M 342.44 48
      h 44
      a 6 6 0 0 1 6 6
      V 70
      a 6 6 0 0 1 -6 6
      H 342.44
      a 6 6 0 0 1 -6 -6
      c 0,-4 -6,-2 -6,-8 c 0,-5 6,-3 6,-8
      a 6 6 0 0 1 6 -6 Z" fill="#4A5172" stroke="#2B3252" stroke-width="1.5"/><text x="361.44" y="67" font-size="13" font-family='Segoe UI, Verdana, Helvetica, sans-serif' fill="#ffffff" text-anchor="middle">0</text><text x="20" y="99" font-size="14" font-family='Segoe UI, Verdana, Helvetica, sans-serif' fill="#ffffff">z</text><path d="M 342.44 80
      h 44
      a 6 6 0 0 1 6 6
      V 102
      a 6 6 0 0 1 -6 6
      H 342.44
      a 6 6 0 0 1 -6 -6
      c 0,-4 -6,-2 -6,-8 c 0,-5 6,-3 6,-8
      a 6 6 0 0 1 6 -6 Z" fill="#4A5172" stroke="#2B3252" stroke-width="1.5"/><text x="361.44" y="99" font-size="13" font-family='Segoe UI, Verdana, Helvetica, sans-serif' fill="#ffffff" text-anchor="middle">0</text><text x="20" y="131" font-size="14" font-family='Segoe UI, Verdana, Helvetica, sans-serif' fill="#ffffff">radius</text><path d="M 342.44 112
      h 44
      a 6 6 0 0 1 6 6
      V 134
      a 6 6 0 0 1 -6 6
      H 342.44
      a 6 6 0 0 1 -6 -6
      c 0,-4 -6,-2 -6,-8 c 0,-5 6,-3 6,-8
      a 6 6 0 0 1 6 -6 Z" fill="#4A5172" stroke="#2B3252" stroke-width="1.5"/><text x="361.44" y="131" font-size="13" font-family='Segoe UI, Verdana, Helvetica, sans-serif' fill="#ffffff" text-anchor="middle">4</text><text x="20" y="163" font-size="14" font-family='Segoe UI, Verdana, Helvetica, sans-serif' fill="#ffffff">height</text><path d="M 342.44 144
      h 44
      a 6 6 0 0 1 6 6
      V 166
      a 6 6 0 0 1 -6 6
      H 342.44
      a 6 6 0 0 1 -6 -6
      c 0,-4 -6,-2 -6,-8 c 0,-5 6,-3 6,-8
      a 6 6 0 0 1 6 -6 Z" fill="#4A5172" stroke="#2B3252" stroke-width="1.5"/><text x="361.44" y="163" font-size="13" font-family='Segoe UI, Verdana, Helvetica, sans-serif' fill="#ffffff" text-anchor="middle">10</text><text x="20" y="195" font-size="14" font-family='Segoe UI, Verdana, Helvetica, sans-serif' fill="#ffffff">max bonemeal attempts</text><path d="M 342.44 176
      h 44
      a 6 6 0 0 1 6 6
      V 198
      a 6 6 0 0 1 -6 6
      H 342.44
      a 6 6 0 0 1 -6 -6
      c 0,-4 -6,-2 -6,-8 c 0,-5 6,-3 6,-8
      a 6 6 0 0 1 6 -6 Z" fill="#4A5172" stroke="#2B3252" stroke-width="1.5"/><text x="361.44" y="195" font-size="13" font-family='Segoe UI, Verdana, Helvetica, sans-serif' fill="#ffffff" text-anchor="middle">200</text>
</svg>