<svg xmlns="http://www.w3.org/2000/svg" width="406.44" height="234" viewBox="0 0 406.44 234">
  <path d="M 12 15
      H 24
      l 4 4 h 8 l 4 -4
      H 394.44
      a 6 6 0 0 1 6 6
      V 213
      a 6 6 0 0 1 -6 6
      H 40
      l -4 4 h -8 l -4 -4
      H 12
      a 6 6 0 0 1 -6 -6
      V 21
      a 6 6 0 0 1 6 -6 Z" fill="#72574A" stroke="#4A382F" stroke-width="1.5"/>
  <text x="20" y="37" font-size="14" font-family='Segoe UI, Verdana, Helvetica, sans-serif' fill="#ffffff">Auto-capture all tree structures at x</text><rect x="328.44" y="29" width="8" height="6" fill="#1a1410"/><path d="M 342.44 19 h 44 a 6 6 0 0 1 6 6 v 14 a 6 6 0 0 1 -6 6 h -44 a 4 4 0 0 1 -4 -4 v -3 a 3 4 0 0 0 0 -8 v -3 a 4 4 0 0 1 4 -4 z" fill="#4A5172" stroke="#2B3252" stroke-width="1.5"/><text x="361.44" y="37" font-size="13" font-family='Segoe UI, Verdana, Helvetica, sans-serif' fill="#ffffff" text-anchor="middle">0</text><text x="20" y="71" font-size="14" font-family='Segoe UI, Verdana, Helvetica, sans-serif' fill="#ffffff">y</text><rect x="328.44" y="63" width="8" height="6" fill="#1a1410"/><path d="M 342.44 53 h 44 a 6 6 0 0 1 6 6 v 14 a 6 6 0 0 1 -6 6 h -44 a 4 4 0 0 1 -4 -4 v -3 a 3 4 0 0 0 0 -8 v -3 a 4 4 0 0 1 4 -4 z" fill="#4A5172" stroke="#2B3252" stroke-width="1.5"/><text x="361.44" y="71" font-size="13" font-family='Segoe UI, Verdana, Helvetica, sans-serif' fill="#ffffff" text-anchor="middle">0</text><text x="20" y="105" font-size="14" font-family='Segoe UI, Verdana, Helvetica, sans-serif' fill="#ffffff">z</text><rect x="328.44" y="97" width="8" height="6" fill="#1a1410"/><path d="M 342.44 87 h 44 a 6 6 0 0 1 6 6 v 14 a 6 6 0 0 1 -6 6 h -44 a 4 4 0 0 1 -4 -4 v -3 a 3 4 0 0 0 0 -8 v -3 a 4 4 0 0 1 4 -4 z" fill="#4A5172" stroke="#2B3252" stroke-width="1.5"/><text x="361.44" y="105" font-size="13" font-family='Segoe UI, Verdana, Helvetica, sans-serif' fill="#ffffff" text-anchor="middle">0</text><text x="20" y="139" font-size="14" font-family='Segoe UI, Verdana, Helvetica, sans-serif' fill="#ffffff">radius</text><rect x="328.44" y="131" width="8" height="6" fill="#1a1410"/><path d="M 342.44 121 h 44 a 6 6 0 0 1 6 6 v 14 a 6 6 0 0 1 -6 6 h -44 a 4 4 0 0 1 -4 -4 v -3 a 3 4 0 0 0 0 -8 v -3 a 4 4 0 0 1 4 -4 z" fill="#4A5172" stroke="#2B3252" stroke-width="1.5"/><text x="361.44" y="139" font-size="13" font-family='Segoe UI, Verdana, Helvetica, sans-serif' fill="#ffffff" text-anchor="middle">4</text><text x="20" y="173" font-size="14" font-family='Segoe UI, Verdana, Helvetica, sans-serif' fill="#ffffff">height</text><rect x="328.44" y="165" width="8" height="6" fill="#1a1410"/><path d="M 342.44 155 h 44 a 6 6 0 0 1 6 6 v 14 a 6 6 0 0 1 -6 6 h -44 a 4 4 0 0 1 -4 -4 v -3 a 3 4 0 0 0 0 -8 v -3 a 4 4 0 0 1 4 -4 z" fill="#4A5172" stroke="#2B3252" stroke-width="1.5"/><text x="361.44" y="173" font-size="13" font-family='Segoe UI, Verdana, Helvetica, sans-serif' fill="#ffffff" text-anchor="middle">10</text><text x="20" y="207" font-size="14" font-family='Segoe UI, Verdana, Helvetica, sans-serif' fill="#ffffff">max bonemeal attempts</text><rect x="328.44" y="199" width="8" height="6" fill="#1a1410"/><path d="M 342.44 189 h 44 a 6 6 0 0 1 6 6 v 14 a 6 6 0 0 1 -6 6 h -44 a 4 4 0 0 1 -4 -4 v -3 a 3 4 0 0 0 0 -8 v -3 a 4 4 0 0 1 4 -4 z" fill="#4A5172" stroke="#2B3252" stroke-width="1.5"/><text x="361.44" y="207" font-size="13" font-family='Segoe UI, Verdana, Helvetica, sans-serif' fill="#ffffff" text-anchor="middle">200</text>
</svg>