<svg xmlns="http://www.w3.org/2000/svg" width="290.4" height="194" viewBox="0 0 290.4 194">
  <rect width="100%" height="100%" fill="#e8e2d8"/>
  <path d="M 22 12
      H 278.4
      a 6 6 0 0 1 6 6
      V 176
      a 6 6 0 0 1 -6 6
      H 22
      a 4 4 0 0 1 -4 -4
      V 104
      a 3 4 0 0 0 0 -14
      V 16
      a 4 4 0 0 1 4 -4 Z" fill="#B98552" stroke="#8A5F35" stroke-width="1.5"/>
  <text x="30" y="34" font-size="14" font-family='Segoe UI, Verdana, Helvetica, sans-serif' fill="#ffffff">Clear tree area at x</text><rect x="206.39999999999998" y="26" width="8" height="6" fill="#20160c"/><path d="M 220.39999999999998 16 h 54 a 6 6 0 0 1 6 6 v 14 a 6 6 0 0 1 -6 6 h -54 a 4 4 0 0 1 -4 -4 v -3 a 3 4 0 0 0 0 -8 v -3 a 4 4 0 0 1 4 -4 z" fill="#5B68A6" stroke="#3F4A80" stroke-width="1.5"/><text x="244.39999999999998" y="34" font-size="13" font-family='Segoe UI, Verdana, Helvetica, sans-serif' fill="#ffffff" text-anchor="middle">0</text><text x="30" y="68" font-size="14" font-family='Segoe UI, Verdana, Helvetica, sans-serif' fill="#ffffff">y</text><rect x="52.12" y="60" width="8" height="6" fill="#20160c"/><path d="M 66.12 50 h 54 a 6 6 0 0 1 6 6 v 14 a 6 6 0 0 1 -6 6 h -54 a 4 4 0 0 1 -4 -4 v -3 a 3 4 0 0 0 0 -8 v -3 a 4 4 0 0 1 4 -4 z" fill="#5B68A6" stroke="#3F4A80" stroke-width="1.5"/><text x="90.12" y="68" font-size="13" font-family='Segoe UI, Verdana, Helvetica, sans-serif' fill="#ffffff" text-anchor="middle">0</text><text x="30" y="102" font-size="14" font-family='Segoe UI, Verdana, Helvetica, sans-serif' fill="#ffffff">z</text><rect x="52.12" y="94" width="8" height="6" fill="#20160c"/><path d="M 66.12 84 h 54 a 6 6 0 0 1 6 6 v 14 a 6 6 0 0 1 -6 6 h -54 a 4 4 0 0 1 -4 -4 v -3 a 3 4 0 0 0 0 -8 v -3 a 4 4 0 0 1 4 -4 z" fill="#5B68A6" stroke="#3F4A80" stroke-width="1.5"/><text x="90.12" y="102" font-size="13" font-family='Segoe UI, Verdana, Helvetica, sans-serif' fill="#ffffff" text-anchor="middle">0</text><text x="30" y="136" font-size="14" font-family='Segoe UI, Verdana, Helvetica, sans-serif' fill="#ffffff">radius</text><rect x="92.72" y="128" width="8" height="6" fill="#20160c"/><path d="M 106.72 118 h 54 a 6 6 0 0 1 6 6 v 14 a 6 6 0 0 1 -6 6 h -54 a 4 4 0 0 1 -4 -4 v -3 a 3 4 0 0 0 0 -8 v -3 a 4 4 0 0 1 4 -4 z" fill="#5B68A6" stroke="#3F4A80" stroke-width="1.5"/><text x="130.72" y="136" font-size="13" font-family='Segoe UI, Verdana, Helvetica, sans-serif' fill="#ffffff" text-anchor="middle">4</text><text x="30" y="170" font-size="14" font-family='Segoe UI, Verdana, Helvetica, sans-serif' fill="#ffffff">height</text><rect x="92.72" y="162" width="8" height="6" fill="#20160c"/><path d="M 106.72 152 h 54 a 6 6 0 0 1 6 6 v 14 a 6 6 0 0 1 -6 6 h -54 a 4 4 0 0 1 -4 -4 v -3 a 3 4 0 0 0 0 -8 v -3 a 4 4 0 0 1 4 -4 z" fill="#5B68A6" stroke="#3F4A80" stroke-width="1.5"/><text x="130.72" y="170" font-size="13" font-family='Segoe UI, Verdana, Helvetica, sans-serif' fill="#ffffff" text-anchor="middle">10</text>
</svg>