<svg xmlns="http://www.w3.org/2000/svg" width="298.52" height="194" viewBox="0 0 298.52 194">
  <rect width="100%" height="100%" fill="#e8e2d8"/>
  <path d="M 22 12
      H 286.52
      a 6 6 0 0 1 6 6
      V 176
      a 6 6 0 0 1 -6 6
      H 22
      a 4 4 0 0 1 -4 -4
      V 104
      a 3 4 0 0 0 0 -14
      V 16
      a 4 4 0 0 1 4 -4 Z" fill="#B98552" stroke="#8A5F35" stroke-width="1.5"/>
  <text x="30" y="34" font-size="14" font-family='Segoe UI, Verdana, Helvetica, sans-serif' fill="#ffffff">Grow tree from</text><rect x="157.68" y="26" width="8" height="6" fill="#20160c"/><path d="M 171.68 16 h 106.94 a 6 6 0 0 1 6 6 v 14 a 6 6 0 0 1 -6 6 h -106.94 a 4 4 0 0 1 -4 -4 v -3 a 3 4 0 0 0 0 -8 v -3 a 4 4 0 0 1 4 -4 z" fill="#8A8047" stroke="#615A30" stroke-width="1.5"/><text x="222.15" y="34" font-size="13" font-family='Segoe UI, Verdana, Helvetica, sans-serif' fill="#ffffff" text-anchor="middle">Oak Sapling</text><text x="30" y="68" font-size="14" font-family='Segoe UI, Verdana, Helvetica, sans-serif' fill="#ffffff">at x</text><rect x="76.47999999999999" y="60" width="8" height="6" fill="#20160c"/><path d="M 90.47999999999999 50 h 54 a 6 6 0 0 1 6 6 v 14 a 6 6 0 0 1 -6 6 h -54 a 4 4 0 0 1 -4 -4 v -3 a 3 4 0 0 0 0 -8 v -3 a 4 4 0 0 1 4 -4 z" fill="#5B68A6" stroke="#3F4A80" stroke-width="1.5"/><text x="114.47999999999999" y="68" font-size="13" font-family='Segoe UI, Verdana, Helvetica, sans-serif' fill="#ffffff" text-anchor="middle">0</text><text x="30" y="102" font-size="14" font-family='Segoe UI, Verdana, Helvetica, sans-serif' fill="#ffffff">y</text><rect x="52.12" y="94" width="8" height="6" fill="#20160c"/><path d="M 66.12 84 h 54 a 6 6 0 0 1 6 6 v 14 a 6 6 0 0 1 -6 6 h -54 a 4 4 0 0 1 -4 -4 v -3 a 3 4 0 0 0 0 -8 v -3 a 4 4 0 0 1 4 -4 z" fill="#5B68A6" stroke="#3F4A80" stroke-width="1.5"/><text x="90.12" y="102" font-size="13" font-family='Segoe UI, Verdana, Helvetica, sans-serif' fill="#ffffff" text-anchor="middle">0</text><text x="30" y="136" font-size="14" font-family='Segoe UI, Verdana, Helvetica, sans-serif' fill="#ffffff">z</text><rect x="52.12" y="128" width="8" height="6" fill="#20160c"/><path d="M 66.12 118 h 54 a 6 6 0 0 1 6 6 v 14 a 6 6 0 0 1 -6 6 h -54 a 4 4 0 0 1 -4 -4 v -3 a 3 4 0 0 0 0 -8 v -3 a 4 4 0 0 1 4 -4 z" fill="#5B68A6" stroke="#3F4A80" stroke-width="1.5"/><text x="90.12" y="136" font-size="13" font-family='Segoe UI, Verdana, Helvetica, sans-serif' fill="#ffffff" text-anchor="middle">0</text><text x="30" y="170" font-size="14" font-family='Segoe UI, Verdana, Helvetica, sans-serif' fill="#ffffff">max bonemeal attempts</text><rect x="214.51999999999998" y="162" width="8" height="6" fill="#20160c"/><path d="M 228.51999999999998 152 h 54 a 6 6 0 0 1 6 6 v 14 a 6 6 0 0 1 -6 6 h -54 a 4 4 0 0 1 -4 -4 v -3 a 3 4 0 0 0 0 -8 v -3 a 4 4 0 0 1 4 -4 z" fill="#5B68A6" stroke="#3F4A80" stroke-width="1.5"/><text x="252.51999999999998" y="170" font-size="13" font-family='Segoe UI, Verdana, Helvetica, sans-serif' fill="#ffffff" text-anchor="middle">200</text>
</svg>