<svg xmlns="http://www.w3.org/2000/svg" width="317.22" height="200" viewBox="0 0 317.22 200">
  <path d="M 12 15
      H 24
      l 4 4 h 8 l 4 -4
      H 305.22
      a 6 6 0 0 1 6 6
      V 179
      a 6 6 0 0 1 -6 6
      H 40
      l -4 4 h -8 l -4 -4
      H 12
      a 6 6 0 0 1 -6 -6
      V 21
      a 6 6 0 0 1 6 -6 Z" fill="#72574A" stroke="#4A382F" stroke-width="1.5"/>
  <text x="20" y="37" font-size="14" font-family='Segoe UI, Verdana, Helvetica, sans-serif' fill="#ffffff">Render tree overlay</text><rect x="182.28000000000003" y="29" width="8" height="6" fill="#1a1410"/><path d="M 196.28000000000003 19 h 100.94 a 6 6 0 0 1 6 6 v 14 a 6 6 0 0 1 -6 6 h -100.94 a 4 4 0 0 1 -4 -4 v -3 a 3 4 0 0 0 0 -8 v -3 a 4 4 0 0 1 4 -4 z" fill="#5C5340" stroke="#3A3427" stroke-width="1.5"/><text x="243.75000000000003" y="37" font-size="13" font-family='Segoe UI, Verdana, Helvetica, sans-serif' fill="#ffffff" text-anchor="middle">Oak Sapling</text><text x="20" y="71" font-size="14" font-family='Segoe UI, Verdana, Helvetica, sans-serif' fill="#ffffff">percentage complete</text><rect x="239.22000000000003" y="63" width="8" height="6" fill="#1a1410"/><path d="M 253.22000000000003 53 h 44 a 6 6 0 0 1 6 6 v 14 a 6 6 0 0 1 -6 6 h -44 a 4 4 0 0 1 -4 -4 v -3 a 3 4 0 0 0 0 -8 v -3 a 4 4 0 0 1 4 -4 z" fill="#4A5172" stroke="#2B3252" stroke-width="1.5"/><text x="272.22" y="71" font-size="13" font-family='Segoe UI, Verdana, Helvetica, sans-serif' fill="#ffffff" text-anchor="middle">0.5</text><text x="20" y="105" font-size="14" font-family='Segoe UI, Verdana, Helvetica, sans-serif' fill="#ffffff">(0 to 1) y-offset</text><rect x="239.22000000000003" y="97" width="8" height="6" fill="#1a1410"/><path d="M 253.22000000000003 87 h 44 a 6 6 0 0 1 6 6 v 14 a 6 6 0 0 1 -6 6 h -44 a 4 4 0 0 1 -4 -4 v -3 a 3 4 0 0 0 0 -8 v -3 a 4 4 0 0 1 4 -4 z" fill="#4A5172" stroke="#2B3252" stroke-width="1.5"/><text x="272.22" y="105" font-size="13" font-family='Segoe UI, Verdana, Helvetica, sans-serif' fill="#ffffff" text-anchor="middle">0</text><text x="20" y="139" font-size="14" font-family='Segoe UI, Verdana, Helvetica, sans-serif' fill="#ffffff">scale</text><rect x="239.22000000000003" y="131" width="8" height="6" fill="#1a1410"/><path d="M 253.22000000000003 121 h 44 a 6 6 0 0 1 6 6 v 14 a 6 6 0 0 1 -6 6 h -44 a 4 4 0 0 1 -4 -4 v -3 a 3 4 0 0 0 0 -8 v -3 a 4 4 0 0 1 4 -4 z" fill="#4A5172" stroke="#2B3252" stroke-width="1.5"/><text x="272.22" y="139" font-size="13" font-family='Segoe UI, Verdana, Helvetica, sans-serif' fill="#ffffff" text-anchor="middle">1</text><text x="20" y="173" font-size="14" font-family='Segoe UI, Verdana, Helvetica, sans-serif' fill="#ffffff">on shape bounds</text><rect x="227.52000000000004" y="165" width="8" height="6" fill="#1a1410"/><path d="M 241.52000000000004 155 h 55.699999999999996 a 6 6 0 0 1 6 6 v 14 a 6 6 0 0 1 -6 6 h -55.699999999999996 a 4 4 0 0 1 -4 -4 v -3 a 3 4 0 0 0 0 -8 v -3 a 4 4 0 0 1 4 -4 z" fill="#4A5172" stroke="#2B3252" stroke-width="1.5"/><text x="266.37000000000006" y="173" font-size="13" font-family='Segoe UI, Verdana, Helvetica, sans-serif' fill="#ffffff" text-anchor="middle">FALSE</text>
</svg>