<svg xmlns="http://www.w3.org/2000/svg" width="337.24" height="336" viewBox="0 0 337.24 336">
  <rect width="100%" height="100%" fill="#e8e2d8"/>
  <path d="M 12 15
      H 24
      l 4 4 h 8 l 4 -4
      H 325.24
      a 6 6 0 0 1 6 6
      V 315
      a 6 6 0 0 1 -6 6
      H 40
      l -4 4 h -8 l -4 -4
      H 12
      a 6 6 0 0 1 -6 -6
      V 21
      a 6 6 0 0 1 6 -6 Z" fill="#B98552" stroke="#8A5F35" stroke-width="1.5"/>
  <text x="20" y="37" font-size="14" font-family='Segoe UI, Verdana, Helvetica, sans-serif' fill="#ffffff">Render center spinning item</text><rect x="253.23999999999998" y="29" width="8" height="6" fill="#20160c"/><path d="M 267.24 19 h 54 a 6 6 0 0 1 6 6 v 14 a 6 6 0 0 1 -6 6 h -54 a 4 4 0 0 1 -4 -4 v -3 a 3 4 0 0 0 0 -8 v -3 a 4 4 0 0 1 4 -4 z" fill="#8A8047" stroke="#615A30" stroke-width="1.5"/><text x="291.24" y="37" font-size="13" font-family='Segoe UI, Verdana, Helvetica, sans-serif' fill="#ffffff" text-anchor="middle">Air</text><text x="20" y="71" font-size="14" font-family='Segoe UI, Verdana, Helvetica, sans-serif' fill="#ffffff">scale</text><rect x="74.6" y="63" width="8" height="6" fill="#20160c"/><path d="M 88.6 53 h 54 a 6 6 0 0 1 6 6 v 14 a 6 6 0 0 1 -6 6 h -54 a 4 4 0 0 1 -4 -4 v -3 a 3 4 0 0 0 0 -8 v -3 a 4 4 0 0 1 4 -4 z" fill="#5B68A6" stroke="#3F4A80" stroke-width="1.5"/><text x="112.6" y="71" font-size="13" font-family='Segoe UI, Verdana, Helvetica, sans-serif' fill="#ffffff" text-anchor="middle">0.5</text><text x="20" y="105" font-size="14" font-family='Segoe UI, Verdana, Helvetica, sans-serif' fill="#ffffff">rotation x</text><rect x="115.19999999999999" y="97" width="8" height="6" fill="#20160c"/><path d="M 129.2 87 h 54 a 6 6 0 0 1 6 6 v 14 a 6 6 0 0 1 -6 6 h -54 a 4 4 0 0 1 -4 -4 v -3 a 3 4 0 0 0 0 -8 v -3 a 4 4 0 0 1 4 -4 z" fill="#5B68A6" stroke="#3F4A80" stroke-width="1.5"/><text x="153.2" y="105" font-size="13" font-family='Segoe UI, Verdana, Helvetica, sans-serif' fill="#ffffff" text-anchor="middle">0</text><text x="20" y="139" font-size="14" font-family='Segoe UI, Verdana, Helvetica, sans-serif' fill="#ffffff">y</text><rect x="42.12" y="131" width="8" height="6" fill="#20160c"/><path d="M 56.12 121 h 54 a 6 6 0 0 1 6 6 v 14 a 6 6 0 0 1 -6 6 h -54 a 4 4 0 0 1 -4 -4 v -3 a 3 4 0 0 0 0 -8 v -3 a 4 4 0 0 1 4 -4 z" fill="#5B68A6" stroke="#3F4A80" stroke-width="1.5"/><text x="80.12" y="139" font-size="13" font-family='Segoe UI, Verdana, Helvetica, sans-serif' fill="#ffffff" text-anchor="middle">0</text><text x="20" y="173" font-size="14" font-family='Segoe UI, Verdana, Helvetica, sans-serif' fill="#ffffff">z</text><rect x="42.12" y="165" width="8" height="6" fill="#20160c"/><path d="M 56.12 155 h 54 a 6 6 0 0 1 6 6 v 14 a 6 6 0 0 1 -6 6 h -54 a 4 4 0 0 1 -4 -4 v -3 a 3 4 0 0 0 0 -8 v -3 a 4 4 0 0 1 4 -4 z" fill="#5B68A6" stroke="#3F4A80" stroke-width="1.5"/><text x="80.12" y="173" font-size="13" font-family='Segoe UI, Verdana, Helvetica, sans-serif' fill="#ffffff" text-anchor="middle">0</text><text x="20" y="207" font-size="14" font-family='Segoe UI, Verdana, Helvetica, sans-serif' fill="#ffffff">bob height</text><rect x="115.19999999999999" y="199" width="8" height="6" fill="#20160c"/><path d="M 129.2 189 h 54 a 6 6 0 0 1 6 6 v 14 a 6 6 0 0 1 -6 6 h -54 a 4 4 0 0 1 -4 -4 v -3 a 3 4 0 0 0 0 -8 v -3 a 4 4 0 0 1 4 -4 z" fill="#5B68A6" stroke="#3F4A80" stroke-width="1.5"/><text x="153.2" y="207" font-size="13" font-family='Segoe UI, Verdana, Helvetica, sans-serif' fill="#ffffff" text-anchor="middle">0.1</text><text x="20" y="241" font-size="14" font-family='Segoe UI, Verdana, Helvetica, sans-serif' fill="#ffffff">spin speed</text><rect x="115.19999999999999" y="233" width="8" height="6" fill="#20160c"/><path d="M 129.2 223 h 54 a 6 6 0 0 1 6 6 v 14 a 6 6 0 0 1 -6 6 h -54 a 4 4 0 0 1 -4 -4 v -3 a 3 4 0 0 0 0 -8 v -3 a 4 4 0 0 1 4 -4 z" fill="#5B68A6" stroke="#3F4A80" stroke-width="1.5"/><text x="153.2" y="241" font-size="13" font-family='Segoe UI, Verdana, Helvetica, sans-serif' fill="#ffffff" text-anchor="middle">4</text><text x="20" y="275" font-size="14" font-family='Segoe UI, Verdana, Helvetica, sans-serif' fill="#ffffff">padding</text><rect x="90.84" y="267" width="8" height="6" fill="#20160c"/><path d="M 104.84 257 h 54 a 6 6 0 0 1 6 6 v 14 a 6 6 0 0 1 -6 6 h -54 a 4 4 0 0 1 -4 -4 v -3 a 3 4 0 0 0 0 -8 v -3 a 4 4 0 0 1 4 -4 z" fill="#5B68A6" stroke="#3F4A80" stroke-width="1.5"/><text x="128.84" y="275" font-size="13" font-family='Segoe UI, Verdana, Helvetica, sans-serif' fill="#ffffff" text-anchor="middle">0</text><text x="20" y="309" font-size="14" font-family='Segoe UI, Verdana, Helvetica, sans-serif' fill="#ffffff">y-offset</text><rect x="98.96" y="301" width="8" height="6" fill="#20160c"/><path d="M 112.96 291 h 54 a 6 6 0 0 1 6 6 v 14 a 6 6 0 0 1 -6 6 h -54 a 4 4 0 0 1 -4 -4 v -3 a 3 4 0 0 0 0 -8 v -3 a 4 4 0 0 1 4 -4 z" fill="#5B68A6" stroke="#3F4A80" stroke-width="1.5"/><text x="136.95999999999998" y="309" font-size="13" font-family='Segoe UI, Verdana, Helvetica, sans-serif' fill="#ffffff" text-anchor="middle">0</text>
</svg>