<svg xmlns="http://www.w3.org/2000/svg" width="268.4" height="302" viewBox="0 0 268.4 302">
  <path d="M 12 15
      H 24
      l 4 4 h 8 l 4 -4
      H 256.4
      a 6 6 0 0 1 6 6
      V 281
      a 6 6 0 0 1 -6 6
      H 40
      l -4 4 h -8 l -4 -4
      H 12
      a 6 6 0 0 1 -6 -6
      V 21
      a 6 6 0 0 1 6 -6 Z" fill="#72574A" stroke="#4A382F" stroke-width="1.5"/>
  <text x="20" y="37" font-size="14" font-family='Segoe UI, Verdana, Helvetica, sans-serif' fill="#ffffff">Render spinning item</text><rect x="190.39999999999998" y="29" width="8" height="6" fill="#1a1410"/><path d="M 204.39999999999998 19 h 44 a 6 6 0 0 1 6 6 v 14 a 6 6 0 0 1 -6 6 h -44 a 4 4 0 0 1 -4 -4 v -3 a 3 4 0 0 0 0 -8 v -3 a 4 4 0 0 1 4 -4 z" fill="#5C5340" stroke="#3A3427" stroke-width="1.5"/><text x="223.39999999999998" y="37" font-size="13" font-family='Segoe UI, Verdana, Helvetica, sans-serif' fill="#ffffff" text-anchor="middle">Air</text><text x="20" y="71" font-size="14" font-family='Segoe UI, Verdana, Helvetica, sans-serif' fill="#ffffff">at</text><rect x="118.37999999999998" y="63" width="8" height="6" fill="#1a1410"/><path d="M 132.38 53 h 116.02 a 6 6 0 0 1 6 6 v 14 a 6 6 0 0 1 -6 6 h -116.02 a 4 4 0 0 1 -4 -4 v -3 a 3 4 0 0 0 0 -8 v -3 a 4 4 0 0 1 4 -4 z" fill="#72574A" stroke="#4A382F" stroke-width="1.5"/><text x="187.39" y="71" font-size="13" font-family='Segoe UI, Verdana, Helvetica, sans-serif' fill="#ffffff" text-anchor="middle">MIDDLE_CENTER</text><text x="20" y="105" font-size="14" font-family='Segoe UI, Verdana, Helvetica, sans-serif' fill="#ffffff">on</text><rect x="178.7" y="97" width="8" height="6" fill="#1a1410"/><path d="M 192.7 87 h 55.699999999999996 a 6 6 0 0 1 6 6 v 14 a 6 6 0 0 1 -6 6 h -55.699999999999996 a 4 4 0 0 1 -4 -4 v -3 a 3 4 0 0 0 0 -8 v -3 a 4 4 0 0 1 4 -4 z" fill="#72574A" stroke="#4A382F" stroke-width="1.5"/><text x="217.54999999999998" y="105" font-size="13" font-family='Segoe UI, Verdana, Helvetica, sans-serif' fill="#ffffff" text-anchor="middle">NORTH</text><text x="20" y="139" font-size="14" font-family='Segoe UI, Verdana, Helvetica, sans-serif' fill="#ffffff">face scale</text><rect x="190.39999999999998" y="131" width="8" height="6" fill="#1a1410"/><path d="M 204.39999999999998 121 h 44 a 6 6 0 0 1 6 6 v 14 a 6 6 0 0 1 -6 6 h -44 a 4 4 0 0 1 -4 -4 v -3 a 3 4 0 0 0 0 -8 v -3 a 4 4 0 0 1 4 -4 z" fill="#4A5172" stroke="#2B3252" stroke-width="1.5"/><text x="223.39999999999998" y="139" font-size="13" font-family='Segoe UI, Verdana, Helvetica, sans-serif' fill="#ffffff" text-anchor="middle">0.5</text><text x="20" y="173" font-size="14" font-family='Segoe UI, Verdana, Helvetica, sans-serif' fill="#ffffff">bob height</text><rect x="190.39999999999998" y="165" width="8" height="6" fill="#1a1410"/><path d="M 204.39999999999998 155 h 44 a 6 6 0 0 1 6 6 v 14 a 6 6 0 0 1 -6 6 h -44 a 4 4 0 0 1 -4 -4 v -3 a 3 4 0 0 0 0 -8 v -3 a 4 4 0 0 1 4 -4 z" fill="#4A5172" stroke="#2B3252" stroke-width="1.5"/><text x="223.39999999999998" y="173" font-size="13" font-family='Segoe UI, Verdana, Helvetica, sans-serif' fill="#ffffff" text-anchor="middle">0.1</text><text x="20" y="207" font-size="14" font-family='Segoe UI, Verdana, Helvetica, sans-serif' fill="#ffffff">spin speed</text><rect x="190.39999999999998" y="199" width="8" height="6" fill="#1a1410"/><path d="M 204.39999999999998 189 h 44 a 6 6 0 0 1 6 6 v 14 a 6 6 0 0 1 -6 6 h -44 a 4 4 0 0 1 -4 -4 v -3 a 3 4 0 0 0 0 -8 v -3 a 4 4 0 0 1 4 -4 z" fill="#4A5172" stroke="#2B3252" stroke-width="1.5"/><text x="223.39999999999998" y="207" font-size="13" font-family='Segoe UI, Verdana, Helvetica, sans-serif' fill="#ffffff" text-anchor="middle">4</text><text x="20" y="241" font-size="14" font-family='Segoe UI, Verdana, Helvetica, sans-serif' fill="#ffffff">padding</text><rect x="190.39999999999998" y="233" width="8" height="6" fill="#1a1410"/><path d="M 204.39999999999998 223 h 44 a 6 6 0 0 1 6 6 v 14 a 6 6 0 0 1 -6 6 h -44 a 4 4 0 0 1 -4 -4 v -3 a 3 4 0 0 0 0 -8 v -3 a 4 4 0 0 1 4 -4 z" fill="#4A5172" stroke="#2B3252" stroke-width="1.5"/><text x="223.39999999999998" y="241" font-size="13" font-family='Segoe UI, Verdana, Helvetica, sans-serif' fill="#ffffff" text-anchor="middle">0</text><text x="20" y="275" font-size="14" font-family='Segoe UI, Verdana, Helvetica, sans-serif' fill="#ffffff">y-offset</text><rect x="190.39999999999998" y="267" width="8" height="6" fill="#1a1410"/><path d="M 204.39999999999998 257 h 44 a 6 6 0 0 1 6 6 v 14 a 6 6 0 0 1 -6 6 h -44 a 4 4 0 0 1 -4 -4 v -3 a 3 4 0 0 0 0 -8 v -3 a 4 4 0 0 1 4 -4 z" fill="#4A5172" stroke="#2B3252" stroke-width="1.5"/><text x="223.39999999999998" y="275" font-size="13" font-family='Segoe UI, Verdana, Helvetica, sans-serif' fill="#ffffff" text-anchor="middle">0</text>
</svg>